<svg width="400" height="400" viewBox="0 0 400 400" fill="none" xmlns="http://www.w3.org/2000/svg">
<rect width="400" height="400" fill="#f3f4f6"/>
<path d="M200 150c-27.614 0-50 22.386-50 50s22.386 50 50 50 50-22.386 50-50-22.386-50-50-50zm0 80c-16.569 0-30-13.431-30-30s13.431-30 30-30 30 13.431 30 30-13.431 30-30 30z" fill="#9ca3af"/>
<path d="M320 100H80c-11.046 0-20 8.954-20 20v160c0 11.046 8.954 20 20 20h240c11.046 0 20-8.954 20-20V120c0-11.046-8.954-20-20-20zM80 120h240v128.787l-60-60c-7.811-7.811-20.474-7.811-28.284 0L200 220.503l-31.716-31.716c-7.811-7.811-20.474-7.811-28.284 0L80 248.787V120zm0 160v-21.213l60-60 60 60 71.716-71.716 48.284 48.284V280H80z" fill="#9ca3af"/>
</svg>
